:SAMPLES-PER-SECOND 30
:FULLY-SPECIFIED
:DEGREES
203
root  38.6198 36.3093 -29.5209 -133.369 84.3434 -177.414
RightUpLeg  -78.9164 -13.1252 19.8274
RightLeg  36.3016 0.985325 0.509903
RightFoot  -0.816186 0.838291 -9.13508
RightToes  0.00048216 0.542163 -0.142577
Spine  74.6782 -5.83999 8.07471
Spine1  -3.25593 1.63492 -8.75672
HEad  -45.3452 -7.74933 6.16381
LeftShoulder1  2.06076 -24.8192 1.36031
LeftArm  -85.6851 -54.3645 36.919
LeftForeArm  -19.5377 -8.7251 3.83534
LeftHand  -0.25398 0.0180481 5.50724
RightShoulder  1.63947 11.664 2.73532
RightArm  -79.4228 53.5817 -29.875
RightForeArm  -27.9294 11.207 2.20746
RightHand  0.374443 10.0938 2.27453
LeftUpLeg  -77.4047 13.3832 -15.7509
LeftLeg  39.1444 -1.87854 -1.25941
LeftFoot  -5.02448 -0.277445 5.58127
LeftToes  1.06245e-005 4.65855e-005 -8.18504e-006
204
root  38.9621 36.3588 -29.4276 -135.622 84.0391 179.69
RightUpLeg  -79.1005 -13.1033 19.7023
RightLeg  36.5726 0.548824 0.16835
RightFoot  -1.38642 0.800145 -9.26358
RightToes  0.00048216 0.542163 -0.142577
Spine  74.7676 -6.03223 7.80967
Spine1  -2.57582 1.29795 -8.88419
HEad  -44.7131 -7.30771 6.5834
LeftShoulder1  1.37009 -23.231 3.78432
LeftArm  -86.8987 -54.0874 36.2952
LeftForeArm  -18.7717 -9.60082 4.21898
LeftHand  -0.25398 0.0180481 5.50724
RightShoulder  1.48083 11.1103 1.96955
RightArm  -80.3914 53.3758 -30.1537
RightForeArm  -28.9999 12.1978 2.34229
RightHand  -0.0112027 9.97948 -0.605163
LeftUpLeg  -77.6655 13.2454 -15.689
LeftLeg  39.3934 -2.02592 -1.40267
LeftFoot  -4.71382 -0.236737 4.57732
LeftToes  1.06245e-005 4.65855e-005 -8.18504e-006
205
root  39.2812 36.4104 -29.3606 -137.486 83.8867 177.276
RightUpLeg  -79.1549 -13.0382 19.4131
RightLeg  36.7481 0.150407 -0.149089
RightFoot  -2.03221 0.709203 -8.85004
RightToes  0.00048216 0.542163 -0.142577
Spine  74.6917 -6.17787 7.47998
Spine1  -1.73486 0.992052 -9.03955
HEad  -44.428 -6.38768 6.89671
LeftShoulder1  0.905297 -21.629 5.50232
LeftArm  -88.7545 -54.0814 36.1515
LeftForeArm  -18.5237 -10.2678 4.52947
LeftHand  -0.25398 0.0180481 5.50724
RightShoulder  1.35302 10.6327 1.33182
RightArm  -81.3864 53.3296 -30.4913
RightForeArm  -29.9239 12.9078 2.46514
RightHand  -0.36572 9.78448 -3.30756
LeftUpLeg  -77.7104 13.3456 -15.9296
LeftLeg  39.3439 -2.39834 -1.72612
LeftFoot  -4.70664 -0.196073 3.86863
LeftToes  1.06245e-005 4.65855e-005 -8.18504e-006
206
root  39.5728 36.4647 -29.3273 -138.622 83.8513 175.636
RightUpLeg  -79.1149 -12.8759 19.0036
RightLeg  36.7777 -0.168484 -0.405075
RightFoot  -2.54997 0.614229 -8.1952
RightToes  0.00048216 0.542163 -0.142577
Spine  74.4689 -6.19154 7.2337
Spine1  -0.962801 0.871072 -9.03776
HEad  -44.1222 -5.46429 6.83986
LeftShoulder1  0.716105 -20.3502 6.18415
LeftArm  -90.5826 -54.3605 36.5159
LeftForeArm  -18.7049 -10.6239 4.74305
LeftHand  -0.25398 0.0180481 5.50724
RightShoulder  1.20774 10.2818 0.410676
RightArm  -82.0422 53.2027 -29.8307
RightForeArm  -30.6137 13.4713 2.47309
RightHand  -0.583985 9.56123 -5.03061
LeftUpLeg  -77.5368 13.5709 -16.3719
LeftLeg  38.9246 -2.80319 -2.0478
LeftFoot  -5.17777 -0.171895 3.77427
LeftToes  1.06245e-005 4.65855e-005 -8.18504e-006
207
root  39.8212 36.5162 -29.3162 -138.989 83.7733 174.96
RightUpLeg  -78.9047 -12.7296 18.6509
RightLeg  36.7568 -0.49656 -0.668213
RightFoot  -2.88514 0.569369 -7.9471
RightToes  0.00048216 0.542163 -0.142577
Spine  74.2059 -6.10864 7.167
Spine1  -0.310123 0.863975 -8.72956
HEad  -43.5687 -4.94175 6.48137
LeftShoulder1  0.655169 -19.2986 6.33216
LeftArm  -91.389 -54.7762 37.2648
LeftForeArm  -18.906 -10.5491 4.76116
LeftHand  -0.25398 0.0180481 5.50724
RightShoulder  1.02357 9.98815 -0.928036
RightArm  -82.4388 52.9646 -28.1517
RightForeArm  -30.904 14.0871 2.43178
RightHand  -0.68181 9.41757 -5.83322
LeftUpLeg  -77.2359 13.6522 -16.4723
LeftLeg  38.59 -2.92744 -2.12712
LeftFoot  -5.62539 -0.158355 3.84929
LeftToes  1.06245e-005 4.65855e-005 -8.18504e-006
208
root  40.0246 36.5624 -29.3141 -138.654 83.6508 175.248
RightUpLeg  -78.502 -12.6704 18.4306
RightLeg  36.7447 -0.793375 -0.906226
RightFoot  -3.20378 0.54342 -7.9235
RightToes  0.00048216 0.542163 -0.142577
Spine  73.9745 -5.99047 7.12569
Spine1  0.358735 0.817357 -8.28059
HEad  -43.0746 -4.62345 6.14048
LeftShoulder1  0.596617 -18.2973 6.48677
LeftArm  -91.4469 -55.051 38.2248
LeftForeArm  -18.7182 -10.3286 4.5853
LeftHand  -0.25398 0.0180481 5.50724
RightShoulder  0.849308 9.62188 -2.19977
RightArm  -83.1445 53.0765 -26.8891
RightForeArm  -30.5913 14.3907 2.30352
RightHand  -0.755431 9.51608 -6.36894
LeftUpLeg  -76.8562 13.5669 -16.0477
LeftLeg  38.5505 -2.75071 -1.97301
LeftFoot  -5.80646 -0.141312 3.64613
LeftToes  1.06245e-005 4.65855e-005 -8.18504e-006
209
root  40.1961 36.6065 -29.3211 -138.205 83.5927 175.768
RightUpLeg  -78.0482 -12.6603 18.2307
RightLeg  36.7234 -0.952357 -1.03308
RightFoot  -3.5269 0.499217 -7.63949
RightToes  0.00048216 0.542163 -0.142577
Spine  73.753 -5.87085 6.97878
Spine1  1.00303 0.732544 -7.97869
HEad  -42.6589 -4.27617 6.03207
LeftShoulder1  0.56168 -17.5469 6.56251
LeftArm  -91.623 -55.2146 39.1313
LeftForeArm  -18.2599 -10.216 4.39909
LeftHand  -0.25398 0.0180481 5.50724
RightShoulder  0.749956 9.34117 -2.92001
RightArm  -83.893 53.6231 -26.6991
RightForeArm  -30.0214 13.9976 1.98391
RightHand  -0.881723 9.94946 -7.15842
LeftUpLeg  -76.377 13.4788 -15.5479
LeftLeg  38.4863 -2.50338 -1.75776
LeftFoot  -6.02788 -0.118787 3.34181
LeftToes  1.06245e-005 4.65855e-005 -8.18504e-006
